<svg width="30" height="30" viewBox="0 0 30 30" fill="none" xmlns="http://www.w3.org/2000/svg">
<path d="M7.40805 22.5919C12.7649 27.9488 19.5236 30.5323 25.0952 29.9086C26.1008 29.7673 26.8169 29.377 27.2644 28.9295L28.8102 27.3836C29.2049 27.0055 29.5047 26.5136 29.6571 25.9449L29.8932 25.0665C30.3365 23.4122 29.3595 21.7224 27.7052 21.2791L22.7623 19.9568C21.6249 19.6521 20.4719 20.0142 19.7179 20.81L18.235 22.2928C15.956 21.7358 13.5975 20.4196 11.589 18.411C9.58045 16.4025 8.2641 14.044 7.70712 11.7649L9.18997 10.282C9.98581 9.52806 10.3479 8.37504 10.0432 7.23767L8.72088 2.29481C8.2776 0.640476 6.58779 -0.336508 4.93345 0.106779L4.05508 0.342833C3.48638 0.495233 2.99442 0.795047 2.61629 1.18977L1.0705 2.73556C0.622999 3.18305 0.232643 3.89912 0.09138 4.90476C-0.532358 10.4763 2.05116 17.235 7.40805 22.5919Z" fill="#0B1C42"/>
</svg>
